<svg width="230" height="241" viewBox="0 0 230 241" fill="none" xmlns="http://www.w3.org/2000/svg">
<rect width="230" height="241" fill="black" fill-opacity="0.34"/>
<path d="M148.268 107.267C148.112 103.725 147.539 101.289 146.718 99.1792C145.872 96.9393 144.57 94.9339 142.863 93.2668C141.196 91.5738 139.178 90.2582 136.964 89.4249C134.841 88.6043 132.419 88.0315 128.876 87.8753C125.308 87.7059 124.175 87.6667 115.124 87.6667C106.072 87.6667 104.939 87.7059 101.384 87.8621C97.8417 88.0183 95.4064 88.5916 93.2968 89.4117C91.0563 90.2582 89.0509 91.5605 87.3839 93.2668C85.6908 94.9339 84.3758 96.9525 83.542 99.1665C82.7214 101.289 82.1486 103.711 81.9924 107.254C81.823 110.822 81.7838 111.955 81.7838 121.007C81.7838 130.058 81.823 131.191 81.9792 134.746C82.1353 138.289 82.7087 140.724 83.5292 142.834C84.3758 145.074 85.6908 147.079 87.3839 148.746C89.0509 150.439 91.0696 151.755 93.2835 152.588C95.4064 153.409 97.8285 153.982 101.371 154.138C104.926 154.295 106.06 154.333 115.111 154.333C124.162 154.333 125.295 154.295 128.851 154.138C132.393 153.982 134.828 153.409 136.938 152.588C141.418 150.856 144.96 147.314 146.693 142.834C147.513 140.711 148.086 138.289 148.242 134.746C148.398 131.191 148.437 130.058 148.437 121.007C148.437 111.955 148.424 110.822 148.268 107.267ZM142.265 134.486C142.121 137.742 141.574 139.5 141.118 140.672C139.998 143.576 137.693 145.881 134.789 147.001C133.617 147.457 131.846 148.004 128.603 148.147C125.086 148.304 124.032 148.342 115.137 148.342C106.242 148.342 105.174 148.304 101.67 148.147C98.4145 148.004 96.6564 147.457 95.4843 147.001C94.039 146.467 92.7234 145.621 91.6556 144.514C90.5486 143.433 89.7021 142.13 89.168 140.685C88.7121 139.513 88.1653 137.742 88.0223 134.499C87.8656 130.983 87.827 129.928 87.827 121.033C87.827 112.137 87.8656 111.07 88.0223 107.567C88.1653 104.311 88.7121 102.553 89.168 101.38C89.7021 99.9347 90.5486 98.6196 91.6688 97.5513C92.7494 96.4443 94.0517 95.5978 95.4975 95.0641C96.6696 94.6083 98.441 94.0614 101.684 93.918C105.2 93.7618 106.255 93.7226 115.15 93.7226C124.058 93.7226 125.112 93.7618 128.616 93.918C131.872 94.0614 133.63 94.6083 134.802 95.0641C136.247 95.5978 137.563 96.4443 138.631 97.5513C139.738 98.6323 140.584 99.9347 141.118 101.38C141.574 102.553 142.121 104.323 142.265 107.567C142.421 111.083 142.46 112.137 142.46 121.033C142.46 129.928 142.421 130.969 142.265 134.486Z" fill="white"/>
<path d="M115.124 103.881C105.669 103.881 97.9979 111.551 97.9979 121.007C97.9979 130.462 105.669 138.132 115.124 138.132C124.579 138.132 132.249 130.462 132.249 121.007C132.249 111.551 124.579 103.881 115.124 103.881ZM115.124 132.116C108.99 132.116 104.015 127.141 104.015 121.007C104.015 114.872 108.99 109.898 115.124 109.898C121.258 109.898 126.233 114.872 126.233 121.007C126.233 127.141 121.258 132.116 115.124 132.116Z" fill="white"/>
<path d="M136.925 103.204C136.925 105.412 135.135 107.202 132.927 107.202C130.719 107.202 128.928 105.412 128.928 103.204C128.928 100.995 130.719 99.2057 132.927 99.2057C135.135 99.2057 136.925 100.995 136.925 103.204Z" fill="white"/>
</svg>
